# xmcd
#
# Track frame offsets:
#	150
#	14480
#	29067
#	46396
#	71877
#	89896
#	107796
#	133160
#
# Disc length: 1927 seconds
#
# Revision: 0
# Processed by: cddbd v1.5.1PL0 Copyright (c) Steve Scherf et al.
# Submitted via: dBpowerAMP V4.0
#
DISCID=7c078508
DTITLE=Declan Kenrick - Still got the BLUES at 9
DYEAR=1900
DGENRE=Blues
TTITLE0=One for Geo
TTITLE1=Evil Gal
TTITLE2=Still got the BLUES at 9
TTITLE3=Harp Gumbo
TTITLE4=Down Home Blues
TTITLE5=Blues for Days
TTITLE6=Baby Please Don't Go
TTITLE7=An Apple for Josh
EXTD=
EXTT0=
EXTT1=
EXTT2=
EXTT3=
EXTT4=
EXTT5=
EXTT6=
EXTT7=
PLAYORDER=
